<?xml version="1.0" encoding="UTF-8"?>
<svg xmlns="http://www.w3.org/2000/svg" width="299" height="356">
  <path d="M143.68 350.424c-.97-1.124-1.459-4.528-1.583-11.02l-.178-9.393-4.034-1.739c-8.964-3.866-12.689-9.813-12.894-20.582-.108-5.657.291-7.443 2.373-10.636 2.677-4.105 2.679-4.094-2.084-9.124-6.595-6.965-8.469-24.169-3.26-29.93 1.091-1.206 1.975-2.648 1.965-3.204-.011-.556-2.142-3.637-4.736-6.847-8.054-9.967-9.06-12.48-9.304-23.252-.197-8.675.025-9.935 2.569-14.551 1.531-2.78 4.071-6.473 5.643-8.207l2.858-3.152-3.746-4.315c-2.061-2.373-4.952-6.775-6.425-9.782-2.37-4.841-2.709-6.784-2.957-16.964-.243-9.97.015-12.184 1.944-16.672 1.224-2.847 3.518-6.463 5.098-8.036 2.785-2.772 3.751-5.503 1.934-5.468-.489.009-3.414-2.375-6.501-5.299-8.562-8.112-13.178-22.332-9.905-30.512l1.458-3.645-3.764-2.939c-3.693-2.883-5.757-5.984-8.832-13.275l-1.542-3.654-5.037 1.717c-4.827 1.645-5.261 1.633-10.337-.289-3.32-1.258-7.403-1.944-10.935-1.838-3.963.119-7.083-.497-10.507-2.074-2.678-1.235-6.871-2.324-9.316-2.422-2.979-.118-6.314-1.276-10.103-3.505-4.038-2.376-6.873-3.319-9.907-3.295-4.802.039-12.681-3.61-16.857-7.806l-2.653-2.665 5.536-1.35c6.745-1.645 24.595-11.006 36.638-19.215 4.887-3.331 15.106-10.322 22.708-15.536C83.968 8.316 85.249 7.627 93.041 5.94c18.041-3.907 32.475 4.14 35.088 19.563 1.008 5.944-.566 11.199-4.839 16.16-1.808 2.099-3.28 4.225-3.27 4.724.009.5 1.477 2.09 3.262 3.535 2.623 2.124 3.912 2.506 6.72 1.995 5.265-.957 6.058-2.385 5.986-10.777-.048-5.656-.586-8.483-2.215-11.633-4.459-8.626-2.175-17.946 5.416-22.101 10.278-5.626 21.579-.425 23.033 10.601.407 3.085-.101 5.641-1.982 9.968-2.223 5.114-2.475 6.878-2.076 14.542l.455 8.723 4.703.213c4.324.196 10.766-2.017 10.734-3.689-.007-.346-1.095-2.001-2.419-3.679-5.905-7.481-6.634-19.79-1.631-27.554 6.208-9.635 14.774-12.904 27.54-10.511 11.72 2.197 16.667 5.026 45.394 25.961 6.877 5.011 18.416 12.357 25.643 16.323 12.505 6.862 13.393 7.187 18.381 6.721 4.82-.451 5.245-.317 5.283 1.662.056 2.934-6.167 10.265-10.827 12.755-2.098 1.121-5.578 2.072-7.733 2.113-2.155.041-6.455 1.295-9.555 2.786-4.588 2.207-6.475 2.602-10.149 2.122-3.202-.418-5.145-.158-6.69.897-2.473 1.689-8.558 3.01-16.596 3.602-16.544 1.219-22.092 1.791-22.985 2.366-.546.352-1.594 2.16-2.329 4.019-1.483 3.749-5.463 8.369-9.608 11.153-2.495 1.675-2.706 2.342-2.595 8.179.17 8.934-2.96 15.866-11.137 24.665l-6.516 7.011 4.217 4.847c6.277 7.214 8.314 12.196 8.503 20.802.296 13.435-2.865 21.068-12.139 29.305l-4.665 4.144 3.133 3.226c7.411 7.63 8.071 9.248 8.214 20.132.161 12.299-1.395 16.007-9.965 23.752-5.489 4.961-7.362 8.083-4.819 8.035.58-.011 2.253 2.545 3.717 5.68 4.617 9.886 2.796 20.291-5.201 29.733-2.097 2.476-3.808 4.75-3.802 5.054.005.303 1.166 2.188 2.58 4.188 2.08 2.942 2.593 4.857 2.691 10.044.215 11.274-6.64 20.441-15.411 20.608l-2.898.055-.468 11.221c-.429 10.3-1.094 12.739-3.504 12.844-.344.015-1.258-.705-2.03-1.601zm2.634-25.96c-.278-14.6-.784-22.43-1.448-22.417-.669.013-.824 7.942-.449 23.001.326 13.06.951 22.738 1.448 22.418.482-.311.684-10.661.449-23.002zm-4.679-11.781c-.288-8.834-1.64-10.586-4.185-5.426-1.823 3.696-1.129 10.404 1.592 15.391l1.628 2.983.612-2.512c.337-1.382.496-6.078.353-10.436zm11.597 9.274c1.371-2.683 1.07-12.417-.428-13.86-2.279-2.193-2.675-1.165-2.837 7.358-.118 6.185.169 8.5 1.053 8.481.668-.014 1.663-.904 2.212-1.979zm8.051-4.893c6.225-10.514 3.622-18.444-9.241-28.156-1.066-.805-3.799-2.867-6.073-4.583-2.274-1.715-5.426-4.909-7.004-7.097-2.533-3.511-2.834-4.671-2.557-9.874l.314-5.897-4.208-2.552c-2.315-1.403-4.937-2.537-5.828-2.521-4.26.082-6.174 12.997-2.995 20.216 3.049 6.924 12.382 14.728 22.063 18.449 5.06 1.945 10.932 8.066 11.813 12.313.729 3.516.375 8.583-.942 13.465-.607 2.253-.508 2.369.958 1.119.899-.766 2.564-2.963 3.7-4.882zm-28.801-.687c-.923-6.699-.014-11.098 2.989-14.463 2.948-3.303 2.502-5.4-1.338-6.286-2.236-.516-3.15-.098-5.067 2.317-2.072 2.611-2.275 3.705-1.785 9.592.379 4.549 1.276 7.767 2.843 10.198 1.26 1.954 2.457 3.549 2.661 3.545.205-.004.068-2.21-.303-4.903zm29.218-32.404c5.104-4.781 7.606-10.429 7.483-16.895-.183-9.584-6.246-17.626-18.96-25.144-7.338-4.339-14.436-10.358-16.321-13.84-2.324-4.292-2.013-10.976.705-15.149 2.71-4.163 2.787-4.047-6.361-9.532-6.16-3.692-6.583-3.525-10.593 4.189-3.845 7.396-4.189 14.989-1.089 24.037 2.031 5.927 3.45 8.094 8.67 13.245 3.786 3.735 8.745 7.363 12.604 9.22 12.441 5.985 18.549 13.791 15.094 19.29-.872 1.387-1.502 4.555-1.45 7.288.156 8.216 3.731 9.368 10.218 3.291zm-14.164-6.231c.058-8.248-.973-11.734-3.456-11.687-1.351.026-.804 13.436.604 14.792 2.119 2.04 2.821 1.275 2.852-3.105zm-6.562-9.377c-.43-1.659-.487-1.658-1.18.022-.401.971-.371 2.545.066 3.5.757 1.652.814 1.651 1.18-.023.212-.966.182-2.541-.066-3.499zm25.641-24.493c6.941-4.404 11.092-12.4 11.542-22.233.303-6.607.041-7.833-2.875-13.483-1.764-3.418-4.257-7.127-5.54-8.241-3.355-2.915-17.915-12.418-22.071-14.405-1.943-.929-6.385-3.498-9.871-5.71-5.446-3.455-6.632-4.759-8.428-9.27-3.414-8.575-2.85-14.547 1.883-19.951 2.705-3.087 1.725-4.645-4.932-7.844l-5.734-2.756-3.432 4.066c-5.33 6.316-7.062 11.553-6.885 20.825.131 6.878.604 8.925 3.32 14.347 3.703 7.395 10.596 14.284 18.968 18.959 12.678 7.078 22.946 14.136 24.794 17.041 1.064 1.672 1.969 4.746 2.01 6.83.08 3.986-2.564 10.492-5.181 12.75-2.607 2.249-1.682 4.821 2.827 7.856 5.142 3.461 5.917 3.559 9.605 1.219zm-18.107-14.908c.049-13.522-.014-13.816-3.305-15.439l-3.029-1.494.2 10.484c.181 9.507.408 10.672 2.432 12.488 1.229 1.101 2.558 1.656 2.956 1.232.397-.423.733-3.695.746-7.271zm6.308-3.3c.094-5.467-1.94-4.793-2.177.721-.165 3.865.052 4.731.953 3.803.642-.661 1.192-2.697 1.224-4.524zm-15.273-5.713c-1.478-1.422-2.534 2.7-1.547 6.035.774 2.615.805 2.593 1.687-1.186.598-2.564.551-4.183-.14-4.849zm31.129-32.892c8.23-6.286 12.042-14.491 11.965-25.756-.031-4.567-.647-7.661-2.073-10.403-1.952-3.754-10.651-13.359-12.075-13.332-.38.007-3.612-1.699-7.182-3.792-3.64-2.134-11.727-5.359-18.41-7.342-13.464-3.995-22.423-8.69-26.973-14.136-2.474-2.962-3.207-4.909-3.644-9.683-.576-6.297.174-7.298 3.12-4.165 4.102 4.363 14.122 2.903 18.338-2.671 2.218-2.933 1.97-5.029-.719-6.083-7.356-2.883-16.038-1.747-22.604 2.957-8.315 5.957-10.532 15.757-5.634 24.906 4.618 8.627 11.048 13.233 32.851 23.534 18.354 8.672 21.66 10.719 24.55 15.202 3.97 6.159 1.733 15.864-5.16 22.381-3.839 3.629-4.176 5.193-1.589 7.369 2.382 2.004 7.511 4.548 9.204 4.566.752.007 3.467-1.591 6.035-3.552zm-51.043-94.178c-1.262-1.215.323-2.398 3.288-2.455 1.617-.031 2.949.394 2.959.944.011.55-.619 1.012-1.398 1.027-.78.015-2.037.278-2.792.584-.756.307-1.681.262-2.057-.1zm30.196 75.877c.473-13.054.454-13.199-1.907-14.95-3.092-2.293-5.925-3.152-6.817-2.066-.39.475-.336 6.836.12 14.137.802 12.861.907 13.314 3.354 14.59 4.627 2.414 4.747 2.146 5.25-11.711zm8.081 4.715c2.541-4.042 2.657-7.942.343-11.505-1.165-1.793-2.555-2.978-3.09-2.633-1.271.82-.98 16.512.306 16.488.537-.011 1.636-1.068 2.441-2.35zm-19.614-7.826c-.146-7.675-.462-9.493-1.646-9.47-1.707.032-2.979 2.266-3.857 6.775-.439 2.252.002 4.563 1.473 7.724 3.23 6.942 4.233 5.689 4.03-5.029zm33.688-33.279c9.409-5.106 17.316-16.898 17.913-26.713.34-5.586.137-6.285-2.885-9.947-5.014-6.077-10.308-8.656-17.585-8.565-6.631.082-11.861 2.123-12.325 4.81-.159.918 1.048 3.108 2.682 4.868 2.589 2.789 3.735 3.241 8.924 3.517 5.292.282 6.292.021 9-2.347 1.675-1.465 3.324-2.669 3.664-2.676.846-.016-.293 8.04-1.488 10.53-3.46 7.206-12.491 14.997-20.688 17.846-5.073 1.764-4.429 3.637 2.441 7.1 6.174 3.113 7.223 3.273 10.347 1.577zm-3.336-40.501c-2.834-.683-2.053-2.272 1.146-2.333 3.327-.063 4.882 1.389 2.517 2.348-.86.349-1.641.584-1.735.522-.093-.062-.961-.304-1.928-.537zm-18.007 31.788c.346-3.652.586-10.624 1.178-34.279.359-14.309.816-26.556 1.016-27.216.201-.659.343-6.513.317-13.008l-.047-11.81-6.863-.558c-3.774-.308-6.999-.418-7.166-.245-.166.174-.152 19.247.031 42.386.263 33.016.607 42.241 1.602 42.858 1.659 1.029 6.968 2.907 8.562 3.029.688.052 1.305-.468 1.37-1.157zm11.091-3.888c4.522-2.182 11.538-8.39 11.504-10.179-.012-.613-.697-1.102-1.521-1.087-.825.016-1.397-.488-1.272-1.12.126-.632-1.338-1.542-3.253-2.022-1.914-.481-5.098-2.244-7.075-3.917l-3.595-3.044-.181 6.316c-.099 3.473.047 6.535.325 6.803.279.267 2.542-.251 5.03-1.152 6.157-2.229 5.747-.684-.642 2.417-5.053 2.454-6.475 4.515-5.231 7.582.741 1.825.931 1.806 5.911-.597zm-24.587-1.789c-.734-1.797-12.921-8.573-15.336-8.527-1.735.033-1.617.381 1.027 3.038 6.233 6.263 16.185 10.08 14.309 5.489zm-.68-6.556c.69-3.027.745-12.266.073-12.253-.352.006-2.052 1.123-3.777 2.481-1.726 1.358-4.665 3.121-6.533 3.917l-3.395 1.447 5.979 2.947c7.378 3.636 7.166 3.595 7.653 1.461zm60.028-21.875c2.314-2.508 4.932-5.715 5.819-7.126 1.588-2.527 1.538-2.641-3.342-7.708-2.724-2.829-5.303-5.287-5.73-5.462-.427-.175-2.778 1.511-5.224 3.748-6.618 6.053-10.717 7.795-18.825 8.001-3.849.098-8.127-.026-9.507-.275-2.294-.413-2.503-.152-2.442 3.047.073 3.856-.056 3.827 7.935 1.78 6.318-1.618 14.978.625 20.48 5.305 2.083 1.772 4.426 3.228 5.208 3.236.782.008 3.315-2.038 5.628-4.546zm-88.708 1.777c.62-.777 3.444-2.462 6.276-3.744 4.224-1.913 6.275-2.248 11.429-1.865 3.455.256 7.133.901 8.175 1.433 2.365 1.209 3.145.436 3.079-3.05l-.052-2.729-8.248.183c-6.318.141-9.335-.29-12.895-1.842-4.318-1.882-11.08-8.008-13.735-12.444-1.057-1.765-1.473-1.532-5.691 3.173-2.503 2.792-4.539 5.658-4.526 6.368.053 2.775 4.306 9.09 8.384 12.448 4.667 3.843 6.087 4.22 7.804 2.069zm111.276-13.336c2.38-.966 1.888-2.053-1.963-4.333-1.926-1.14-5.637-5.157-8.248-8.926-4.238-6.119-5.091-6.846-7.969-6.792-7.014.134-7.277 4.369-.693 11.146 5.007 5.152 8.827 7.526 13.949 8.671 1.658.37 3.09.718 3.184.772.093.055.876-.187 1.74-.538zm-85.847-2.312c2.705-.595 3.281-3.055 3.104-13.244l-.143-8.234-5.977.74-5.977.74-4.595-4.423c-5.709-5.496-6.028-8.378-1.374-12.427 4.478-3.896 6.47-8.366 6.357-14.268-.081-4.279-.592-5.453-3.922-9.01-5.071-5.417-11.624-7.686-20.993-7.269-6.125.272-8.236.909-15.414 4.652-4.575 2.385-10.818 6.08-13.874 8.211-3.056 2.131-9.275 6.467-13.82 9.635C38.576 43.33 29.218 48.791 11.713 56.96L7.76 58.806l2.861 1.43c5.235 2.617 12.981 2.6 19.882-.044 11.656-4.466 42.672-24.799 45.521-29.842 2.333-4.13 3.624-3.099 3.74 2.986.222 11.649 11.037 21.668 23.163 21.458 1.787-.031 3.258.394 3.268.944.011.55-.49 1.009-1.112 1.021-1.813.035-.212 7.513 2.346 10.966 2.957 3.99 9.255 7.747 14.497 8.65 3.866.665 5.556.561 11.284-.699zm109.36-1.506c-.01-.537-1.27-1.705-2.799-2.595-7.221-4.203-12.242-7.789-16.063-11.473-8.359-8.06-8.011-7.885-11.454-5.761-1.667 1.027-3.017 2.603-3 3.5.049 2.57 11.639 12.558 17.512 15.093 5.433 2.345 15.841 3.159 15.804 1.236zm-157.964-.066c1.941-1.029 5.626-3.821 8.188-6.203 7.589-7.057 7.844-9.33 1.172-10.451-3.66-.615-3.957-.43-10.377 6.44-3.635 3.89-7.832 7.898-9.325 8.906-3.137 2.119-3.413 3.278-.926 3.891 2.558.63 7.224-.439 11.268-2.583zm90.454.223c5.828-1.586 11.796-7.055 13.816-12.66 1.315-3.65 1.38-4.794.342-5.997-.705-.818-1.115-1.506-.911-1.528.205-.023 3.814-.204 8.021-.403 6.809-.322 8.118-.715 11.934-3.585 6.634-4.991 10.066-13.473 8.302-20.52-.852-3.401 2.49-1.221 4.072 2.657 1.738 4.26 9.744 11.097 26.348 22.498 13.471 9.25 29.74 12.871 36.63 8.153 3.717-2.545 3.373-4.116-1.18-5.386-9.787-2.731-28.667-13.758-49.539-28.935-26.867-19.536-36.162-23.114-51.309-19.748-3.187.708-9.213 6.513-10.723 10.331-2.768 6.994-.731 15.087 5.304 21.073l3.808 3.777-2.181 3.339c-4.453 6.817-10.209 9.048-17.866 6.925l-2.765-.767.191 10.078.192 10.078 3.267.877c4.544 1.218 9.13 1.136 14.247-.257zm83.876-3.099c1.683-.682 2.144-3.434.57-3.404-1.935.037-22.09-13.603-29.321-19.843-7.746-6.684-9.619-7.536-10.602-4.82-1.465 4.047-.378 6.658 4.867 11.695 12.233 11.748 27.739 19.11 34.486 16.372zm-191.443-.223c2.459-1.313 7.911-5.06 12.116-8.327l7.645-5.94-3.281-3.258c-1.804-1.792-3.637-3.251-4.073-3.243-.436.008-3.12 2.197-5.965 4.864C67.339 61.287 60.058 66.78 54.7 69.615c-5.04 2.666-5.304 3.937-.917 4.408 4.804.516 8.697-.341 13.71-3.018zm-16.614-5.08c5.327-2.67 27.179-17.117 27.163-17.958-.028-1.492-3.54-9.629-4.151-9.618-.428.008-6.489 4.467-13.47 9.908-11.032 8.601-24.663 16.822-27.995 16.886-2.372.045-.814 2.02 2.239 2.839 5.782 1.551 10.111 1.002 16.214-2.057zm104.928-37.104c6.977-8.689 1.403-20.062-9.729-19.85-4.313.082-5.402.549-8.299 3.558-2.857 2.969-3.322 4.145-3.244 8.218.081 4.277.516 5.144 4.324 8.632 4.02 3.68 4.491 3.847 9.278 3.295 4.152-.479 5.506-1.159 7.67-3.853zm-9.535-.697c-.354-.549.283-1.311 1.416-1.694 3.05-1.032 5.586-7.142 3.984-9.601-2.565-3.939-.154-5.649 3.095-2.194 2.406 2.559 2.221 7.547-.394 10.588-2.412 2.805-7.084 4.478-8.101 2.901z"/>
</svg>