<?xml version="1.0" encoding="utf-8"?>
<!-- Generator: Adobe Illustrator 26.0.0, SVG Export Plug-In . SVG Version: 6.00 Build 0)  -->
<svg version="1.1" id="Layer_1" xmlns="http://www.w3.org/2000/svg" xmlns:xlink="http://www.w3.org/1999/xlink" x="0px" y="0px"
	 viewBox="0 0 765.35 765.35" style="enable-background:new 0 0 765.35 765.35;" xml:space="preserve">
<style type="text/css">
	.st0{fill:none;stroke:#D4145A;stroke-miterlimit:10;}
	.st1{fill:#FFFFFF;stroke:#FFFFFF;stroke-miterlimit:10;}
	.st2{fill:none;stroke:#FFFFFF;stroke-miterlimit:10;}
</style>
<path class="st0" d="M474.5,308.5V172h-169l-0.95,136.5H163.5v170h140.94l0.06,1v136h169v-137h141.02l0.95-170H474.5z"/>
<path class="st1" d="M389,66C204.54,66,55,212.63,55,393.5S204.54,721,389,721s334-146.63,334-327.5S573.46,66,389,66z
	 M614.52,478.5H473.5v137h-169v-136l-0.06-1H163.5v-170h141.05L305.5,172h169v136.5h140.97L614.52,478.5z"/>
<polygon class="st2" points="615.47,308.5 614.52,478.5 473.5,478.5 473.5,615.5 304.5,615.5 304.5,479.5 304.44,478.5 163.5,478.5 
	163.5,308.5 304.55,308.5 305.5,172 474.5,172 474.5,308.5 "/>
</svg>
